<?xml version="1.0" encoding="utf-8"?>
<!-- Generator: Adobe Illustrator 21.0.0, SVG Export Plug-In . SVG Version: 6.00 Build 0)  -->
<svg version="1.1" id="Layer_1" xmlns="http://www.w3.org/2000/svg" xmlns:xlink="http://www.w3.org/1999/xlink" x="0px" y="0px"
	 viewBox="0 0 192 192" style="enable-background:new 0 0 192 192;" xml:space="preserve">
<style type="text/css">
	.st0{fill:#FFFFFF;}
</style>
<path class="st0" d="M192,96c0-53-43-96-96-96S0,43,0,96s43,96,96,96h96v-16h-43C175.8,158.2,192,128.2,192,96z M143,160.7
	c-10.7,7.8-25.7,5.4-33.5-5.3c-7.8-10.7-5.4-25.7,5.3-33.5c10.7-7.8,25.7-5.4,33.5,5.3C156.1,137.9,153.7,152.9,143,160.7z
	 M141.8,55.9c12.6-4.1,26.1,2.8,30.2,15.4c4.1,12.6-2.8,26.1-15.4,30.2c-12.6,4.1-26.1-2.8-30.2-15.4
	C122.3,73.5,129.2,60,141.8,55.9z M96,16c13.3,0,24,10.7,24,24s-10.7,24-24,24S72,53.3,72,40S82.7,16,96,16z M19.9,71.3
	C24,58.7,37.6,51.8,50.2,55.9C62.8,60,69.7,73.5,65.6,86.1c-4.1,12.6-17.6,19.5-30.2,15.4S15.8,83.9,19.9,71.3z M82.5,155.4
	c-7.8,10.7-22.8,13.1-33.5,5.3c-10.7-7.8-13.1-22.8-5.3-33.5c7.8-10.7,22.8-13.1,33.5-5.3C87.9,129.7,90.3,144.7,82.5,155.4z M88,96
	c0-4.4,3.6-8,8-8s8,3.6,8,8s-3.6,8-8,8S88,100.4,88,96z"/>
</svg>
